# xmcd
#
# Track frame offsets:
#  150
#  18283
#  38424
#  56810
#  72760
#
# Disc length: 1260 seconds
#
# Revision: 0
# Processed by: cddbd v1.5.2PL0 Copyright (c) Steve Scherf et al.
# Submitted via: AltoMP3_Maker 3.0
#
DISCID=3604ea05
DTITLE=White Boys can't play the blues. - das 1. Album
DYEAR=1900
DGENRE=
TTITLE0=Pickin' Dreams
TTITLE1=Standing At The Station
TTITLE2=Rack'em Up
TTITLE3=I Believe I'm In Love
TTITLE4=Big Baby
EXTD=
EXTT0=
EXTT1=
EXTT2=
EXTT3=
EXTT4=
PLAYORDER=
